<svg xmlns="http://www.w3.org/2000/svg" xmlns:xlink="http://www.w3.org/1999/xlink" preserveAspectRatio="xMidYMid" width="82" height="70" viewBox="0 0 82 70">
  <defs>
    <style>
      .cls-1 {
        fill: #005cae;
        fill-rule: evenodd;
      }
    </style>
  </defs>
  <path d="M77.314,-0.004 L60.914,-0.004 C52.307,-0.004 45.063,2.496 41.000,6.410 C36.936,2.496 29.693,-0.004 21.086,-0.004 L4.686,-0.004 C2.103,-0.004 -0.000,2.089 -0.000,4.663 L-0.000,58.330 C-0.000,60.905 2.103,62.996 4.686,62.996 L21.086,62.996 C27.333,62.996 34.119,65.669 36.553,68.200 C37.656,69.347 39.183,69.996 40.778,69.996 L41.246,69.996 C42.830,69.996 44.345,69.350 45.437,68.208 C47.863,65.675 54.653,62.996 60.914,62.996 L77.314,62.996 C79.897,62.996 82.000,60.905 82.000,58.330 L82.000,4.663 C82.000,2.089 79.897,-0.004 77.314,-0.004 ZM21.086,55.996 L7.029,55.996 L7.029,6.996 L21.086,6.996 C31.098,6.996 37.486,11.142 37.486,13.997 L37.486,59.822 C33.322,57.432 27.597,55.996 21.086,55.996 ZM74.971,55.996 L60.914,55.996 C54.403,55.996 48.678,57.432 44.514,59.822 L44.514,13.997 C44.514,11.142 50.902,6.996 60.914,6.996 L74.971,6.996 L74.971,55.996 Z" class="cls-1"/>
</svg>
