<svg xmlns="http://www.w3.org/2000/svg" xmlns:xlink="http://www.w3.org/1999/xlink" preserveAspectRatio="xMidYMid" width="77" height="72" viewBox="0 0 77 72">
  <defs>
    <style>
      .cls-1 {
        fill: #31aa3a;
        fill-rule: evenodd;
      }
    </style>
  </defs>
  <path d="M62.279,53.997 L57.750,53.997 C55.875,53.997 54.353,52.485 54.353,50.622 C54.353,48.758 55.875,47.246 57.750,47.246 L62.279,47.246 C66.650,47.246 70.206,43.713 70.206,39.371 C70.206,36.183 68.291,33.329 65.327,32.101 L61.147,30.369 L61.147,25.872 C61.147,20.385 56.819,15.949 51.294,15.771 L48.134,15.670 L46.176,13.202 C42.923,9.100 38.062,6.747 32.838,6.747 C23.894,6.747 16.459,13.701 15.913,22.578 L15.678,26.383 L12.279,28.150 C8.895,29.906 6.794,33.344 6.794,37.122 C6.794,42.705 11.366,47.246 16.985,47.246 L21.515,47.246 C23.390,47.246 24.912,48.758 24.912,50.622 C24.912,52.485 23.390,53.997 21.515,53.997 L16.985,53.997 C7.603,53.997 -0.000,46.442 -0.000,37.122 C-0.000,30.618 3.706,24.984 9.132,22.167 C9.893,9.801 20.199,-0.004 32.838,-0.004 C40.422,-0.004 47.158,3.534 51.513,9.025 C60.634,9.317 67.941,16.737 67.941,25.872 C73.260,28.075 77.000,33.287 77.000,39.371 C77.000,47.449 70.409,53.997 62.279,53.997 ZM37.231,30.235 C37.845,29.624 38.695,29.247 39.632,29.247 C40.570,29.247 41.419,29.624 42.034,30.235 L51.093,39.236 C51.708,39.846 52.088,40.690 52.088,41.621 C52.088,43.485 50.569,44.997 48.691,44.997 C47.753,44.997 46.904,44.618 46.289,44.008 L43.029,40.769 L43.029,61.898 C44.398,62.924 45.294,64.539 45.294,66.371 C45.294,69.479 42.760,71.996 39.632,71.996 C36.505,71.996 33.970,69.479 33.970,66.371 C33.970,64.539 34.868,62.924 36.235,61.898 L36.235,40.769 L32.975,44.008 C32.360,44.618 31.511,44.997 30.574,44.997 C28.698,44.997 27.176,43.485 27.176,41.621 C27.176,40.690 27.557,39.846 28.172,39.236 L37.231,30.235 Z" class="cls-1"/>
</svg>
