<svg xmlns="http://www.w3.org/2000/svg" xmlns:xlink="http://www.w3.org/1999/xlink" preserveAspectRatio="xMidYMid" width="89" height="69" viewBox="0 0 89 69">
  <defs>
    <style>
      .cls-1 {
        fill: #7e5b97;
        fill-rule: evenodd;
      }
    </style>
  </defs>
  <path d="M44.500,69.000 C19.920,69.000 2.472,46.821 0.000,34.500 C2.472,22.178 19.920,-0.000 44.500,-0.000 C69.080,-0.000 86.528,22.178 89.000,34.500 C86.528,46.821 69.080,69.000 44.500,69.000 ZM44.500,7.393 C25.094,7.393 10.654,24.498 7.639,34.500 C10.654,44.504 25.094,61.607 44.500,61.607 C63.906,61.607 78.346,44.504 81.361,34.500 C78.346,24.498 63.906,7.393 44.500,7.393 ZM44.500,49.285 C36.306,49.285 29.667,42.668 29.667,34.500 C29.667,26.332 36.306,19.714 44.500,19.714 C52.694,19.714 59.333,26.332 59.333,34.500 C59.333,42.668 52.694,49.285 44.500,49.285 ZM44.500,27.107 C40.410,27.107 37.083,30.423 37.083,34.500 C37.083,38.576 40.410,41.892 44.500,41.892 C48.590,41.892 51.917,38.576 51.917,34.500 C51.917,30.423 48.590,27.107 44.500,27.107 Z" class="cls-1"/>
</svg>
