<svg xmlns="http://www.w3.org/2000/svg" xmlns:xlink="http://www.w3.org/1999/xlink" preserveAspectRatio="xMidYMid" width="70" height="70" viewBox="0 0 70 70">
  <defs>
    <style>
      .cls-1 {
        fill: #ec4e1b;
        fill-rule: evenodd;
      }
    </style>
  </defs>
  <path d="M64.874,29.872 L58.648,36.099 C58.009,36.740 57.169,37.060 56.329,37.060 C55.489,37.060 54.649,36.740 54.009,36.099 C53.383,35.473 53.062,34.659 53.047,33.839 C53.033,32.980 53.353,32.115 54.009,31.459 L60.234,25.232 C62.300,23.166 63.438,20.421 63.438,17.499 C63.438,11.469 58.531,6.562 52.500,6.562 C49.579,6.562 46.832,7.701 44.767,9.767 L31.641,22.891 C29.575,24.956 28.438,27.701 28.438,30.624 C28.438,34.360 30.326,37.803 33.490,39.832 C34.253,40.319 34.744,41.071 34.923,41.891 C35.105,42.712 34.971,43.600 34.481,44.365 C33.994,45.125 33.247,45.617 32.430,45.796 C31.607,45.980 30.714,45.848 29.948,45.356 C24.893,42.114 21.875,36.607 21.875,30.624 C21.875,25.950 23.696,21.553 27.001,18.251 L40.126,5.127 C43.431,1.820 47.825,-0.000 52.500,-0.000 C62.150,-0.000 70.001,7.851 70.001,17.499 C70.001,22.173 68.180,26.569 64.874,29.872 ZM17.500,63.437 C20.422,63.437 23.169,62.299 25.234,60.233 L38.360,47.108 C40.425,45.042 41.563,42.297 41.563,39.375 C41.563,35.639 39.674,32.196 36.511,30.168 C35.748,29.678 35.257,28.927 35.077,28.106 C34.896,27.286 35.030,26.397 35.520,25.635 C36.007,24.875 36.754,24.383 37.570,24.201 C38.394,24.019 39.287,24.152 40.053,24.643 C45.108,27.885 48.125,33.392 48.125,39.375 C48.125,44.049 46.305,48.445 42.999,51.748 L29.874,64.873 C26.570,68.180 22.176,70.000 17.500,70.000 C7.851,70.000 0.000,62.149 0.000,52.500 C0.000,47.826 1.820,43.429 5.126,40.127 L11.352,33.900 C11.992,33.259 12.832,32.938 13.672,32.938 C14.512,32.938 15.351,33.259 15.992,33.900 C16.618,34.526 16.939,35.341 16.954,36.160 C16.968,37.019 16.648,37.884 15.992,38.540 L9.766,44.767 C7.701,46.832 6.563,49.578 6.563,52.500 C6.563,58.530 11.470,63.437 17.500,63.437 Z" class="cls-1"/>
</svg>
