<svg xmlns="http://www.w3.org/2000/svg" xmlns:xlink="http://www.w3.org/1999/xlink" preserveAspectRatio="xMidYMid" width="56" height="81" viewBox="0 0 56 81">
  <defs>
    <style>
      .cls-1 {
        fill: #7d0f7d;
        fill-rule: evenodd;
      }
    </style>
  </defs>
  <path d="M24.182,81.000 C23.824,81.000 23.458,80.951 23.100,80.844 C21.477,80.367 20.364,78.886 20.364,77.203 L20.364,50.625 L3.818,50.625 C2.421,50.625 1.133,49.863 0.462,48.642 C-0.204,47.421 -0.149,45.933 0.611,44.766 L28.611,1.735 C29.531,0.321 31.284,-0.324 32.899,0.155 C34.523,0.633 35.636,2.113 35.636,3.797 L35.636,30.375 L52.182,30.375 C53.581,30.375 54.867,31.136 55.535,32.357 C56.204,33.578 56.147,35.067 55.389,36.233 L27.388,79.265 C26.673,80.367 25.454,81.000 24.182,81.000 ZM10.838,43.031 L24.182,43.031 C26.290,43.031 28.000,44.732 28.000,46.828 L28.000,64.347 L45.164,37.969 L31.818,37.969 C29.710,37.969 28.000,36.268 28.000,34.172 L28.000,16.653 L10.838,43.031 Z" class="cls-1"/>
</svg>
