<svg xmlns="http://www.w3.org/2000/svg" xmlns:xlink="http://www.w3.org/1999/xlink" preserveAspectRatio="xMidYMid" width="69" height="78" viewBox="0 0 69 78">
  <defs>
    <style>
      .cls-1 {
        fill: #445eaa;
        fill-rule: evenodd;
      }
    </style>
  </defs>
  <path d="M64.823,54.339 C60.074,50.278 56.679,39.487 56.679,26.812 C56.679,17.218 50.444,9.085 41.771,6.106 C41.186,2.645 38.166,-0.000 34.500,-0.000 C30.835,-0.000 27.815,2.645 27.230,6.106 C18.557,9.085 12.322,17.218 12.322,26.812 C12.322,39.484 8.929,50.274 4.178,54.338 C1.526,56.607 0.000,59.904 0.000,63.375 C0.000,67.413 3.309,70.687 7.393,70.687 L27.108,70.687 C27.108,74.726 30.417,78.000 34.500,78.000 C38.584,78.000 41.893,74.726 41.893,70.687 L61.608,70.687 C65.691,70.687 69.000,67.413 69.000,63.375 C69.000,59.906 67.477,56.609 64.823,54.339 ZM7.393,63.375 C7.393,62.029 7.985,60.749 9.013,59.869 C15.614,54.224 19.715,41.556 19.715,26.812 C19.715,18.748 26.347,12.187 34.500,12.187 C42.654,12.187 49.286,18.748 49.286,26.812 C49.286,41.558 53.387,54.225 59.988,59.871 C61.018,60.752 61.608,62.029 61.608,63.375 L7.393,63.375 Z" class="cls-1"/>
</svg>
