<svg xmlns="http://www.w3.org/2000/svg" xmlns:xlink="http://www.w3.org/1999/xlink" preserveAspectRatio="xMidYMid" width="80" height="80" viewBox="0 0 80 80">
  <defs>
    <style>
      .cls-1 {
        fill: #e60049;
        fill-rule: evenodd;
      }
    </style>
  </defs>
  <path d="M40.000,80.000 C17.908,80.000 -0.000,62.090 -0.000,40.000 C-0.000,17.909 17.908,-0.000 40.000,-0.000 C62.091,-0.000 80.000,17.909 80.000,40.000 C80.000,62.090 62.091,80.000 40.000,80.000 ZM40.000,7.742 C22.212,7.742 7.742,22.212 7.742,40.000 C7.742,57.787 22.212,72.258 40.000,72.258 C57.787,72.258 72.258,57.787 72.258,40.000 C72.258,22.212 57.787,7.742 40.000,7.742 ZM58.064,43.871 L36.129,43.871 L36.129,19.355 C36.129,17.216 37.862,15.484 40.000,15.484 C42.138,15.484 43.871,17.216 43.871,19.355 L43.871,36.129 L58.064,36.129 C60.202,36.129 61.935,37.861 61.935,40.000 C61.935,42.138 60.202,43.871 58.064,43.871 Z" class="cls-1"/>
</svg>
