<svg xmlns="http://www.w3.org/2000/svg" xmlns:xlink="http://www.w3.org/1999/xlink" preserveAspectRatio="xMidYMid" width="54" height="72" viewBox="0 0 54 72">
  <defs>
    <style>
      .cls-1 {
        fill: #009b8b;
        fill-rule: evenodd;
      }
    </style>
  </defs>
  <path d="M49.500,71.997 L4.500,71.997 C2.015,71.997 -0.000,69.982 -0.000,67.497 L-0.000,11.247 C-0.000,8.761 2.015,6.747 4.500,6.747 L11.250,6.747 L11.250,2.247 C11.250,1.003 12.256,-0.003 13.500,-0.003 L40.500,-0.003 C41.743,-0.003 42.750,1.003 42.750,2.247 L42.750,6.747 L49.500,6.747 C51.985,6.747 54.000,8.761 54.000,11.247 L54.000,67.497 C54.000,69.982 51.985,71.997 49.500,71.997 ZM36.000,6.747 L18.000,6.747 L18.000,13.497 L36.000,13.497 L36.000,6.747 ZM47.250,13.497 L42.750,13.497 L42.750,17.997 C42.750,19.240 41.743,20.247 40.500,20.247 L13.500,20.247 C12.256,20.247 11.250,19.240 11.250,17.997 L11.250,13.497 L6.750,13.497 L6.750,65.247 L47.250,65.247 L47.250,13.497 ZM40.500,33.747 L13.500,33.747 L13.500,26.997 L40.500,26.997 L40.500,33.747 ZM40.500,44.996 L13.500,44.996 L13.500,38.247 L40.500,38.247 L40.500,44.996 Z" class="cls-1"/>
</svg>
