<svg xmlns="http://www.w3.org/2000/svg" xmlns:xlink="http://www.w3.org/1999/xlink" preserveAspectRatio="xMidYMid" width="75" height="80" viewBox="0 0 75 80">
  <defs>
    <style>
      .cls-1 {
        fill: #8d300d;
        fill-rule: evenodd;
      }
    </style>
  </defs>
  <path d="M67.314,15.974 L65.634,17.658 C71.444,24.279 75.000,32.932 75.000,42.420 C75.000,63.140 58.178,79.996 37.500,79.996 C16.822,79.996 -0.000,63.140 -0.000,42.420 C-0.000,23.744 13.682,8.254 31.521,5.370 C31.865,2.350 34.394,-0.004 37.500,-0.004 C40.606,-0.004 43.135,2.350 43.480,5.370 C50.591,6.518 57.027,9.662 62.213,14.229 L63.893,12.546 L60.484,9.130 L64.760,4.845 L75.000,15.105 L70.723,19.390 L67.314,15.974 ZM37.500,12.117 C20.824,12.117 7.258,25.711 7.258,42.420 C7.258,59.130 20.824,72.724 37.500,72.724 C54.176,72.724 67.742,59.130 67.742,42.420 C67.742,25.711 54.176,12.117 37.500,12.117 ZM41.129,47.243 L41.129,52.118 C41.129,54.125 39.505,55.754 37.500,55.754 C35.495,55.754 33.871,54.125 33.871,52.118 L33.871,47.243 C32.410,46.137 31.452,44.400 31.452,42.420 C31.452,40.441 32.410,38.704 33.871,37.598 L33.871,23.027 C33.871,21.019 35.495,19.390 37.500,19.390 C39.505,19.390 41.129,21.019 41.129,23.027 L41.129,37.598 C42.589,38.704 43.548,40.441 43.548,42.420 C43.548,44.400 42.589,46.137 41.129,47.243 Z" class="cls-1"/>
</svg>
